<svg height="512" viewBox="0 0 58 59" width="512" xmlns="http://www.w3.org/2000/svg"><g id="039---Mobile-Storage-Cabinet" fill="none"><path id="Shape" d="m56 0h-54c-1.1045695 0-2 .8954305-2 2v2c0 1.1045695.8954305 2 2 2v44.74c.00217779.7693189.44543243 1.4691946 1.14 1.8l1.45.69 5.3 2.53 4.37 2.09c.6263575.2498352 1.3364426.1672076 1.8886982-.2197744.5522557-.3869821.8723156-1.0262079.8513018-1.7002256v-3.93h24v3.93c-.0210138.6740177.2990461 1.3132435.8513018 1.7002256.5522556.386982 1.2623407.4696096 1.8886982.2197744l4.37-2.09 5.3-2.53 1.45-.69c.6945676-.3308054 1.1378222-1.0306811 1.14-1.8v-44.74c1.1045695 0 2-.8954305 2-2v-2c0-1.1045695-.8954305-2-2-2z" fill="#547580"/><g fill="#9fc9d3"><path id="Shape" d="m13 43h-1c-1.1045695 0-2-.8954305-2-2v-24c0-1.1045695.8954305-2 2-2h1c.5522847 0 1 .4477153 1 1s-.4477153 1-1 1h-1v24h1c.5522847 0 1 .4477153 1 1s-.4477153 1-1 1z"/><path id="Shape" d="m46 43h-1c-.5522847 0-1-.4477153-1-1s.4477153-1 1-1h1v-24h-1c-.5522847 0-1-.4477153-1-1s.4477153-1 1-1h1c1.1045695 0 2 .8954305 2 2v24c0 1.1045695-.8954305 2-2 2z"/><circle id="Oval" cx="11" cy="46" r="1"/><circle id="Oval" cx="47" cy="46" r="1"/></g><path id="Shape" d="m9.89 55.76c-.28914711 1.1858185-1.26790065 2.0782412-2.47530567 2.2569717s-2.40272738-.3918668-3.02301662-1.4430627c-.62028923-1.0511958-.54187118-2.3734014.19832229-3.343909z" fill="#2c2f38"/><path id="Rectangle-path" d="m17 48h24v4h-24z" fill="#a5a5a4"/><path id="Rectangle-path" d="m17 24h24v24h-24z" fill="#2c2f38"/><path id="Rectangle-path" d="m17 6h24v14h-24z" fill="#2c2f38"/><path id="Shape" d="m54 55c-.0217676 1.4916323-1.1362412 2.7406524-2.6157666 2.9315589s-2.8745454-.734308-3.2742334-2.1715589l5.3-2.53c.3797959.5122939.5864604 1.1322873.59 1.77z" fill="#2c2f38"/><path id="Shape" d="m15 0c-.2539531.00256278-.5050944.05346979-.74.15l-12.26 5.85c-1.1045695 0-2-.8954305-2-2v-2c0-1.1045695.8954305-2 2-2z" fill="#2c3e50"/><path id="Shape" d="m43-.00000038c-.542787-.00033218-1.0623978.21996319-1.4395493.61031505-.3771516.39035186-.5794484.91723076-.5604507 1.45968533v3.93h-24v-3.93c.0189977-.54245457-.1832991-1.06933347-.5604507-1.45968533-.3771515-.39035186-.8967623-.61064723-1.4395493-.61031505z" fill="#2c3e50"/><path id="Shape" d="m58 2v2c0 1.1045695-.8954305 2-2 2l-12.26-5.85c-.2349056-.09653021-.4860469-.14743722-.74-.15h13c1.1045695 0 2 .8954305 2 2z" fill="#2c3e50"/><path id="Rectangle-path" d="m17 20h24v4h-24z" fill="#a5a5a4"/><path id="Shape" d="m19 29h4c1.1045695 0 2 .8954305 2 2v17h-8v-17c0-1.1045695.8954305-2 2-2z" fill="#f3d55b"/><path id="Shape" d="m27 29h4c1.1045695 0 2 .8954305 2 2v17h-8v-17c0-1.1045695.8954305-2 2-2z" fill="#894b9d"/><path id="Shape" d="m35 29h4c1.1045695 0 2 .8954305 2 2v17h-8v-17c0-1.1045695.8954305-2 2-2z" fill="#24ae5f"/><path id="Shape" d="m21 41c-.5522847 0-1-.4477153-1-1v-7c0-.5522847.4477153-1 1-1s1 .4477153 1 1v7c0 .5522847-.4477153 1-1 1z" fill="#e57e25"/><path id="Shape" d="m29 41c-.5522847 0-1-.4477153-1-1v-7c0-.5522847.4477153-1 1-1s1 .4477153 1 1v7c0 .5522847-.4477153 1-1 1z" fill="#3d324c"/><circle id="Oval" cx="37" cy="44" fill="#4c8056" r="1"/><path id="Shape" d="m37 41c-.5522847 0-1-.4477153-1-1v-7c0-.5522847.4477153-1 1-1s1 .4477153 1 1v7c0 .5522847-.4477153 1-1 1z" fill="#4c8056"/><path id="Shape" d="m37 12h-1v-2h1c.5522847 0 1-.44771525 1-1s-.4477153-1-1-1h-14.22c-1.594136.06502398-2.8363415 1.4055335-2.78 3-.0563415 1.5944665 1.185864 2.934976 2.78 3h14.22c.5522847 0 1-.4477153 1-1s-.4477153-1-1-1z" fill="#e64c3c"/><path id="Shape" d="m22 11c-.0428428-.4864133.2977929-.9231256.78-1h13.72v2h-13.72c-.4822071-.0768744-.8228428-.5135867-.78-1z" fill="#f5efca"/><path id="Shape" d="m20 19c0 .5522847.4477153 1 1 1h14.22c1.594136-.065024 2.8363415-1.4055335 2.78-3 .0563415-1.5944665-1.185864-2.934976-2.78-3h-14.22c-.5522847 0-1 .4477153-1 1s.4477153 1 1 1h1v2h-1c-.5522847 0-1 .4477153-1 1z" fill="#24ae5f"/><path id="Shape" d="m35.22 18h-13.72v-2h13.72c.5522847 0 1 .4477153 1 1s-.4477153 1-1 1z" fill="#f5efca"/><circle id="Oval" cx="29" cy="44" fill="#3d324c" r="1"/><circle id="Oval" cx="21" cy="44" fill="#e57e25" r="1"/></g></svg>