<svg enable-background="new 0 0 140 140" height="512" viewBox="0 0 140 140" width="512" xmlns="http://www.w3.org/2000/svg"><circle cx="70" cy="70" fill="#4da0dc" r="64"/><path d="m86.87677 33.1341515h-44.0700073c-1.8800049 0-3.4100342 1.5200195-3.4100342 3.3999023v66.9299316c0 1.2600098.6900024 2.3400879 1.710022 2.9401855h-.0200195l27.5618286 27.5615234c.4494019.0095215.8950195.0341797 1.3466187.0341797h.0096436c32.0997925-.0024414 58.6743774-23.6379395 63.2833252-54.4545898l-32.6914062-32.6911659z" opacity=".1"/><path d="m86.8748169 33.1294746h-44.0698853c-1.8803253 0-3.4045982 1.5241547-3.4045982 3.40448v66.9320984c0 1.8800812 1.5242729 3.40448 3.4045982 3.40448h54.3901978c1.8802643 0 3.404541-1.5243988 3.404541-3.40448v-56.6117859z" fill="#e1e6e9"/><path d="m86.8748169 33.1294746v10.2869148c0 1.8989296 1.5391846 3.4378777 3.4378204 3.4378777h10.2870331z" fill="#d5d6db"/><path d="m57.023621 76.031509h4.062009v19.914331h-4.062009z" fill="#4abba4"/><path d="m51.133228 64.070839h6.501677v31.875h-6.501677z" fill="#dd584d"/><path d="m70.914192 81.611977h4.062009v14.333861h-4.062009z" fill="#4abba4"/><path d="m65.023804 73.002976h6.501677v22.942865h-6.501677z" fill="#dd584d"/><path d="m84.804764 86.662048h4.062009v9.283795h-4.062009z" fill="#4abba4"/><path d="m78.914368 81.086144h6.501677v14.859699h-6.501677z" fill="#dd584d"/><path d="m48.481979 96.687012h43.024509v1.505231h-43.024509z" fill="#304551"/><g fill="#dbd8dd"><path d="m69.994232 52.085362h19.737864v2.067625h-19.737864z"/><path d="m69.994232 56.8479h19.737864v2.067625h-19.737864z"/><path d="m69.994232 61.610439h19.737864v2.067625h-19.737864z"/></g></svg>